<svg width="100" height="100" viewBox="0 0 100 100" fill="none" xmlns="http://www.w3.org/2000/svg">
<path d="M100 50C100 36.7392 94.7322 24.0215 85.3553 14.6447C75.9785 5.26784 63.2608 1.00116e-06 50 0C36.7392 -1.00116e-06 24.0215 5.26784 14.6447 14.6447C5.26785 24.0215 2.00233e-06 36.7392 0 50L50 50H100Z" fill="#C53030"/>
<path d="M0 50C-5.74026e-07 56.5661 1.29329 63.0679 3.80602 69.1342C6.31876 75.2004 10.0017 80.7124 14.6447 85.3553C19.2876 89.9983 24.7995 93.6812 30.8658 96.194C36.9321 98.7067 43.4339 100 50 100C56.5661 100 63.0679 98.7067 69.1342 96.194C75.2004 93.6812 80.7124 89.9983 85.3553 85.3553C89.9983 80.7124 93.6812 75.2005 96.194 69.1342C98.7067 63.0679 100 56.5661 100 50H50L0 50Z" fill="white"/>
<line x1="2.62268e-07" y1="51" x2="100" y2="51" stroke="black" stroke-width="6"/>
<circle cx="50" cy="50" r="17" fill="white" stroke="black" stroke-width="6"/>
<circle cx="50" cy="50" r="9.5" fill="#FFFEFE" stroke="black"/>
</svg>
